# xmcd CD database file
#
# Track frame offsets:
#	150
#	33987
#	48982
#	71617
#	100295
#	116585
#	141077
#	158907
#	173275
#	192342
#	218817
#	235717
#	249597
#	262780
#	286862
#	299805
#
# Disc length: 4329 seconds
#
# Revision: 8
# Processed by: cddbd v1.5.1PL2 Copyright (c) Steve Scherf et al.
# Submitted via: Feurio! 1.68 - http://www.feurio.com
#
DISCID=e410e710
DTITLE=Robin Trower - Essential
DYEAR=1991
DGENRE=rock
TTITLE0=Too Rolling Stoned
TTITLE1=Lady Love
TTITLE2=Bridge of Sighs
TTITLE3=Daydream
TTITLE4=Shame the Devil
TTITLE5=Hannah
TTITLE6=Messin' the Blues
TTITLE7=Pride
TTITLE8=Alethea
TTITLE9=Confessin' Midnight
TTITLE10=Victims of the Fury
TTITLE11=Gonna Be More Suspicious
TTITLE12=Sweet Wine of Love
TTITLE13=I Can't Wait Much Longer
TTITLE14=Into Money
TTITLE15=Bluebird
EXTD=LABEL =Chrysalis Records, Inc.\nID =F21853\nUPC =
EXTD=09463-21853-27\nCOPYRIGHT =1991
EXTT0=
EXTT1=
EXTT2=
EXTT3=
EXTT4=
EXTT5=
EXTT6=
EXTT7=
EXTT8=
EXTT9=
EXTT10=
EXTT11=
EXTT12=
EXTT13=
EXTT14=
EXTT15=
PLAYORDER=
